<svg xmlns="http://www.w3.org/2000/svg" xmlns:xlink="http://www.w3.org/1999/xlink" version="1.1" x="0px" y="0px" viewBox="0 0 96 120" enable-background="new 0 0 96 96" xml:space="preserve"><g><path d="M44.358,48c0-0.772-0.314-1.493-0.862-1.979l-30.91-27.31c-0.514-0.454-1.134-0.694-1.795-0.694   c-1.139,0-2.218,0.749-2.623,1.821c-0.382,1.009-0.102,2.093,0.73,2.828L37.572,48L8.898,73.335   c-0.832,0.735-1.112,1.818-0.73,2.827c0.406,1.072,1.484,1.82,2.623,1.82c0.661,0,1.281-0.239,1.793-0.692l30.913-27.313   C44.044,49.493,44.358,48.772,44.358,48z"/><path d="M66.363,48c0-0.772-0.314-1.493-0.862-1.979l-30.91-27.31c-0.513-0.454-1.133-0.694-1.794-0.694h-0.001   c-1.138,0-2.216,0.749-2.621,1.82c-0.382,1.009-0.103,2.092,0.729,2.828L59.578,48L30.903,73.335   c-0.832,0.735-1.112,1.818-0.73,2.827c0.406,1.072,1.484,1.82,2.623,1.82c0.661,0,1.281-0.239,1.793-0.692l30.913-27.313   C66.049,49.493,66.363,48.772,66.363,48z"/><path d="M87.139,46.021l-30.91-27.31c-0.513-0.454-1.133-0.694-1.794-0.694c-1.14,0-2.218,0.749-2.623,1.82   c-0.382,1.009-0.103,2.093,0.73,2.828L81.215,48L52.542,73.335c-0.833,0.735-1.112,1.819-0.73,2.827   c0.406,1.072,1.484,1.82,2.623,1.82c0.661,0,1.281-0.239,1.794-0.692l30.91-27.313C87.686,49.493,88,48.772,88,48   S87.687,46.507,87.139,46.021z"/></g><text x="0" y="111" fill="#000000" font-size="5px" font-weight="bold" font-family="'Helvetica Neue', Helvetica, Arial-Unicode, Arial, Sans-serif">Created by vectoriconset10</text><text x="0" y="116" fill="#000000" font-size="5px" font-weight="bold" font-family="'Helvetica Neue', Helvetica, Arial-Unicode, Arial, Sans-serif">from the Noun Project</text></svg>